<svg xmlns="http://www.w3.org/2000/svg" width="256" height="256" class="icon" viewBox="0 0 1024 1024"><path fill="#073042" d="M382.828 201.56H198.346a67.92 67.92 0 0 0-67.703 67.922 65.73 65.73 0 0 0 65.73 67.702h188.428l-1.97-135.624z"/><path fill="#4285F4" d="M803.065 805.184H198.127a67.92 67.92 0 0 1-67.484-67.702v-468.44a67.92 67.92 0 0 0 72.085 68.142H704.47s98.595-8.546 98.595 65.73z"/><path d="M483.616 479.381a37.686 37.686 0 1 0 14.46 72.303 37.466 37.466 0 0 0-14.461-72.304z"/><path fill="#3870B2" d="M520.862 565.268a60.911 60.911 0 0 0-34.836-109.55h1.971a57.6 57.6 0 0 1 10.736 0v-37.686a12.05 12.05 0 0 0-5.697-10.736 11.83 11.83 0 0 0-12.05 0 12.05 12.05 0 0 0-5.696 10.736v38.343a61.13 61.13 0 0 0-26.731 109.551L337.036 804.308h72.742l51.489-109.551a26.73 26.73 0 0 1 24.101-15.117 26.29 26.29 0 0 1 23.882 15.117l53.022 109.551h73.62zm77.782 228.304a37.686 37.686 0 0 1-26.512-64.196 37.466 37.466 0 0 1 64.196 26.51 37.686 37.686 0 0 1-37.684 37.686"/><path fill="#FFF" d="M342.952 234.864h258.76v47.545h-258.76z"/><path fill="#073042" d="M463.458 479.381a37.466 37.466 0 1 1-26.731 10.955 38.12 38.12 0 0 1 26.73-10.956zm14.9-21.91v-39.439a12.05 12.05 0 0 0-5.698-10.736 11.83 11.83 0 0 0-12.05 0 12.05 12.05 0 0 0-5.697 10.736v38.343a61.13 61.13 0 0 0-26.73 109.551L288.176 867.19a33.3 33.3 0 0 0 2.41 33.522 33.74 33.74 0 0 0 30.456 14.242 33.08 33.08 0 0 0 27.168-19.719l93.338-200.478a26.95 26.95 0 0 1 24.101-15.117 26.29 26.29 0 0 1 23.882 15.117l95.747 199.383a33.084 33.084 0 1 0 59.596-28.922l-144.17-299.95a60.69 60.69 0 0 0 21.91-60.69 61.35 61.35 0 0 0-43.82-46.889"/><path fill="#3DDC84" d="M564.245 276.712a17.529 17.529 0 0 1-12.708-30.018 17.748 17.748 0 0 1 30.236 12.49 17.53 17.53 0 0 1-17.528 17.528m-194.782 0a17.529 17.529 0 0 1-12.489-30.018 17.748 17.748 0 1 1 24.978 24.978 17.3 17.3 0 0 1-12.489 5.04M570.6 170.446l35.056-60.91a7.45 7.45 0 0 0-12.708-7.449l-35.494 61.787a220.85 220.85 0 0 0-180.979 0l-35.712-61.787a7.45 7.45 0 0 0-6.355-3.726 8.1 8.1 0 0 0-6.354 3.726 7.45 7.45 0 0 0 0 7.45l35.275 60.91A208.59 208.59 0 0 0 255.53 337.182h422.866A208.59 208.59 0 0 0 570.6 170.447"/><path fill="#073042" d="M742.374 467.11h-27.825a3.506 3.506 0 0 0-3.507 3.506v439.3a3.506 3.506 0 0 0 3.287 3.504h28.703a60.91 60.91 0 0 0 60.69-60.91V406.2a60.91 60.91 0 0 1-61.348 60.912z"/></svg>